<svg width="16" height="16" viewBox="0 0 16 16" fill="none" xmlns="http://www.w3.org/2000/svg">
<path d="M8 0C3.584 0 0 3.584 0 8C0 12.416 3.584 16 8 16C12.416 16 16 12.416 16 8C16 3.584 12.416 0 8 0ZM8 2.4C9.328 2.4 10.4 3.472 10.4 4.8C10.4 6.128 9.328 7.2 8 7.2C6.672 7.2 5.6 6.128 5.6 4.8C5.6 3.472 6.672 2.4 8 2.4ZM8 13.76C7.04949 13.76 6.11375 13.5248 5.27622 13.0753C4.4387 12.6258 3.72542 11.9761 3.2 11.184C3.224 9.592 6.4 8.72 8 8.72C9.592 8.72 12.776 9.592 12.8 11.184C12.2746 11.9761 11.5613 12.6258 10.7238 13.0753C9.88625 13.5248 8.95051 13.76 8 13.76Z" fill="white"/>
</svg>
