<svg width="26" height="26" viewBox="0 0 26 26" fill="none" xmlns="http://www.w3.org/2000/svg">
<g clip-path="url(#clip0)">
<path d="M25.7621 20.8874L17.8744 12.9997L25.7621 5.11192C25.9132 4.95892 25.998 4.75253 25.998 4.53748C25.998 4.32242 25.9132 4.11603 25.7621 3.96304L22.036 0.236916C21.9607 0.161301 21.8711 0.101303 21.7726 0.0603643C21.674 0.0194257 21.5683 -0.00164795 21.4615 -0.00164795C21.3548 -0.00164795 21.2491 0.0194257 21.1505 0.0603643C21.052 0.101303 20.9624 0.161301 20.8871 0.236916L12.9994 8.12467L5.11161 0.236916C4.95924 0.0845959 4.75262 -0.000972894 4.53717 -0.000972894C4.32173 -0.000972894 4.1151 0.0845959 3.96274 0.236916L0.236611 3.96304C0.160995 4.03838 0.100998 4.1279 0.0600591 4.22648C0.0191206 4.32505 -0.00195312 4.43074 -0.00195312 4.53748C-0.00195312 4.64422 0.0191206 4.74991 0.0600591 4.84848C0.100998 4.94706 0.160995 5.03658 0.236611 5.11192L8.12436 12.9997L0.236611 20.8874C0.0842907 21.0398 -0.00127807 21.2464 -0.00127807 21.4619C-0.00127807 21.6773 0.0842907 21.8839 0.236611 22.0363L3.96274 25.7624C4.03807 25.838 4.12759 25.898 4.22617 25.939C4.32475 25.9799 4.43043 26.001 4.53717 26.001C4.64391 26.001 4.7496 25.9799 4.84818 25.939C4.94675 25.898 5.03628 25.838 5.11161 25.7624L12.9994 17.8747L20.8871 25.7624C21.0395 25.9147 21.2461 26.0003 21.4615 26.0003C21.677 26.0003 21.8836 25.9147 22.036 25.7624L25.7621 22.0363C25.8377 21.961 25.8977 21.8714 25.9387 21.7729C25.9796 21.6743 26.0007 21.5686 26.0007 21.4619C26.0007 21.3551 25.9796 21.2494 25.9387 21.1509C25.8977 21.0523 25.8377 20.9628 25.7621 20.8874V20.8874Z" fill="white"/>
</g>
<defs>
<clipPath id="clip0">
<rect width="26" height="26" fill="white"/>
</clipPath>
</defs>
</svg>
