<svg width="16" height="16" viewBox="0 0 16 16" fill="none" xmlns="http://www.w3.org/2000/svg">
<path d="M11.5556 14.1866C11.5502 14.4227 11.5922 14.6576 11.6791 14.8773C11.766 15.0971 11.896 15.2973 12.0615 15.4662C12.227 15.6351 12.4247 15.7694 12.643 15.861C12.8612 15.9527 13.0956 15.9999 13.3324 16C13.5692 16.0001 13.8037 15.9529 14.022 15.8614C14.2403 15.7698 14.438 15.6357 14.6036 15.4668C14.7692 15.298 14.8993 15.0978 14.9863 14.8781C15.0733 14.6584 15.1155 14.4236 15.1102 14.1875C15.1 13.7241 14.9082 13.2832 14.5761 12.9591C14.244 12.635 13.7979 12.4535 13.3333 12.4534C12.8687 12.4532 12.4225 12.6346 12.0903 12.9585C11.758 13.2824 11.5661 13.7233 11.5556 14.1866ZM2.66667 14.1866C2.66667 14.6569 2.85397 15.108 3.18737 15.4405C3.52076 15.7731 3.97295 15.9599 4.44444 15.9599C4.91594 15.9599 5.36813 15.7731 5.70152 15.4405C6.03492 15.108 6.22222 14.6569 6.22222 14.1866C6.22222 13.7163 6.03492 13.2652 5.70152 12.9327C5.36813 12.6001 4.91594 12.4133 4.44444 12.4133C3.97295 12.4133 3.52076 12.6001 3.18737 12.9327C2.85397 13.2652 2.66667 13.7163 2.66667 14.1866V14.1866ZM5.81956 9.90578L15.6578 7.10216C15.754 7.07016 15.8382 7.0098 15.8993 6.92907C15.9604 6.84834 15.9955 6.75102 16 6.64996V1.77332H3.55556V0.354665C3.55556 0.159599 3.39467 0 3.20089 0H0.354667C0.260594 0.000467732 0.170521 0.0380124 0.104084 0.104449C0.0376468 0.170886 0.00023343 0.260827 0 0.354665L0 1.77332H1.77778L3.47556 9.71515L3.55556 10.5513V12.0134C3.55556 12.2076 3.71556 12.368 3.91111 12.368H15.6444C15.84 12.368 16 12.2067 16 12.0134V10.6399H6.00178C4.97956 10.6399 4.95822 10.1514 5.81956 9.90578V9.90578Z" fill="white"/>
</svg>
